<svg width="72" height="23" viewBox="0 0 72 23" fill="none" xmlns="http://www.w3.org/2000/svg">
<g id="IMAGE">
<path id="Vector" d="M16.9112 1.91699H19.4595V21.0837H16.9112V1.91699Z" fill="#84A17D"/>
<path id="Vector_2" d="M0 5.51074H14.3629V10.3024H0V5.51074Z" fill="#84A17D"/>
<path id="Vector_3" d="M5.44403 12.6982H14.3629V17.4899H5.44403V12.6982Z" fill="#84A17D"/>
<path id="Vector_4" d="M29.4609 18.1459H26.7907L32.131 3.54492H34.7809L40.1212 18.1459H37.3904L36.1969 14.7703H30.6746L29.4609 18.1459ZM33.1222 7.89926L31.423 12.6131H35.4485L33.7493 7.89926C33.6953 7.6995 33.6346 7.49978 33.5672 7.30002C33.4998 7.1003 33.4593 6.92718 33.4458 6.7807C33.4189 6.91386 33.3717 7.08698 33.3043 7.30002C33.2503 7.49978 33.1896 7.6995 33.1222 7.89926Z" fill="#F4F5F6"/>
<path id="Vector_5" d="M43.6949 18.1467H41.2472V3.28613H43.6949V18.1467Z" fill="#F4F5F6"/>
<path id="Vector_6" d="M45.879 18.1459V8.27884H48.3469V18.1459H45.879ZM47.0927 6.30141C46.6747 6.30141 46.3173 6.16159 46.0207 5.88195C45.7374 5.58899 45.5959 5.23613 45.5959 4.82333C45.5959 4.41054 45.7374 4.06432 46.0207 3.78469C46.3173 3.50505 46.6747 3.36523 47.0927 3.36523C47.5108 3.36523 47.8614 3.50505 48.1446 3.78469C48.4413 4.06432 48.5896 4.41054 48.5896 4.82333C48.5896 5.23613 48.4413 5.58899 48.1446 5.88195C47.8614 6.16159 47.5108 6.30141 47.0927 6.30141Z" fill="#F4F5F6"/>
<path id="Vector_7" d="M49.9257 12.993C49.9257 12.0342 50.1212 11.182 50.5124 10.4363C50.9166 9.67728 51.4766 9.07808 52.1912 8.63863C52.9059 8.19919 53.7354 7.97949 54.6791 7.97949C55.529 7.97949 56.2573 8.16594 56.8639 8.53878C57.4706 8.89829 57.8958 9.40429 58.1385 10.0568L57.8754 10.2765L58.0777 8.27912H60.3637V17.6469C60.3637 18.7388 60.1477 19.6842 59.7162 20.4832C59.2983 21.2954 58.698 21.9147 57.9157 22.3407C57.1471 22.7802 56.2169 22.9999 55.1243 22.9999C53.695 22.9999 52.5216 22.6204 51.6045 21.8614C50.6875 21.1024 50.148 20.0637 49.9865 18.7455H52.4544C52.5352 19.3846 52.8047 19.884 53.2635 20.2435C53.7353 20.603 54.3556 20.7828 55.1243 20.7828C55.9742 20.7828 56.6484 20.5364 57.1471 20.0438C57.6598 19.5644 57.9157 18.9119 57.9157 18.0863V15.6295L58.1989 15.8892C57.9561 16.515 57.5115 17.0144 56.8639 17.3872C56.2169 17.76 55.4682 17.9465 54.6188 17.9465C53.6745 17.9465 52.8519 17.7335 52.1509 17.3073C51.4493 16.8812 50.9035 16.2953 50.5124 15.5496C50.1212 14.8039 49.9257 13.9517 49.9257 12.993ZM52.4136 12.933C52.4136 13.4923 52.5216 13.9916 52.7376 14.4311C52.9667 14.8572 53.2834 15.1967 53.6882 15.4497C54.0929 15.7027 54.5648 15.8292 55.1043 15.8292C55.6706 15.8292 56.1561 15.7094 56.5604 15.4697C56.9788 15.2167 57.2955 14.8771 57.5115 14.4511C57.7406 14.0116 57.8554 13.5056 57.8554 12.933C57.8554 12.3605 57.7474 11.8677 57.5314 11.4549C57.3159 11.0289 56.9987 10.6959 56.5808 10.4563C56.1761 10.2166 55.6842 10.0967 55.1043 10.0967C54.5512 10.0967 54.0725 10.2232 53.6677 10.4762C53.2635 10.7159 52.9531 11.0488 52.7376 11.4749C52.5216 11.901 52.4136 12.3871 52.4136 12.933Z" fill="#F4F5F6"/>
<path id="Vector_8" d="M64.981 18.1462H62.513V8.27912H64.7986L65.0009 9.55744C65.3113 9.06476 65.7496 8.6786 66.3159 8.39895C66.8958 8.11931 67.5229 7.97949 68.1971 7.97949C69.4513 7.97949 70.3951 8.34567 71.029 9.07808C71.6765 9.81044 72 10.8091 72 12.0742V18.1462H69.5321V12.6534C69.5321 11.8278 69.3433 11.2153 68.9658 10.8158C68.5883 10.403 68.0755 10.1966 67.4285 10.1966C66.6598 10.1966 66.0595 10.4363 65.628 10.9157C65.1965 11.395 64.981 12.0342 64.981 12.8332V18.1462Z" fill="#F4F5F6"/>
</g>
</svg>
